<mxfile host="app.diagrams.net" agent="Mozilla/5.0 (Windows NT 10.0; Win64; x64) AppleWebKit/537.36 (KHTML, like Gecko) Chrome/130.0.0.0 Safari/537.36" version="24.8.4">
  <diagram name="general" id="V9hHeblfETCl9dgACQwb">
    <mxGraphModel dx="1062" dy="582" grid="1" gridSize="10" guides="1" tooltips="1" connect="1" arrows="1" fold="1" page="1" pageScale="1" pageWidth="827" pageHeight="1169" math="0" shadow="0">
      <root>
        <mxCell id="0" />
        <mxCell id="1" parent="0" />
        <mxCell id="fJoIZStwYssJqCRf20SM-1" value="" style="rounded=1;whiteSpace=wrap;html=1;fillColor=#e1d5e7;strokeColor=#9673a6;" vertex="1" parent="1">
          <mxGeometry x="250" y="250" width="300" height="110" as="geometry" />
        </mxCell>
        <mxCell id="fJoIZStwYssJqCRf20SM-2" value="" style="html=1;verticalLabelPosition=bottom;align=center;labelBackgroundColor=#ffffff;verticalAlign=top;strokeWidth=2;strokeColor=#0080F0;shadow=0;dashed=0;shape=mxgraph.ios7.icons.user;" vertex="1" parent="1">
          <mxGeometry x="384" y="150" width="30" height="30" as="geometry" />
        </mxCell>
        <mxCell id="fJoIZStwYssJqCRf20SM-3" value="" style="endArrow=classic;html=1;rounded=0;exitX=0.533;exitY=0.933;exitDx=0;exitDy=0;exitPerimeter=0;" edge="1" parent="1" source="fJoIZStwYssJqCRf20SM-2" target="fJoIZStwYssJqCRf20SM-1">
          <mxGeometry width="50" height="50" relative="1" as="geometry">
            <mxPoint x="390" y="430" as="sourcePoint" />
            <mxPoint x="440" y="380" as="targetPoint" />
          </mxGeometry>
        </mxCell>
        <mxCell id="fJoIZStwYssJqCRf20SM-4" value="&lt;font style=&quot;font-size: 14px;&quot;&gt;&lt;b&gt;vm2cont&lt;/b&gt;&lt;/font&gt;&lt;div style=&quot;font-size: 14px;&quot;&gt;&lt;font style=&quot;font-size: 14px;&quot;&gt;&lt;b&gt;(CLI)&lt;/b&gt;&lt;/font&gt;&lt;/div&gt;" style="text;html=1;align=center;verticalAlign=middle;whiteSpace=wrap;rounded=0;" vertex="1" parent="1">
          <mxGeometry x="369" y="270" width="60" height="30" as="geometry" />
        </mxCell>
        <mxCell id="fJoIZStwYssJqCRf20SM-6" value="Works as a module" style="text;html=1;align=center;verticalAlign=middle;whiteSpace=wrap;rounded=0;" vertex="1" parent="1">
          <mxGeometry x="338.5" y="320" width="121" height="30" as="geometry" />
        </mxCell>
        <mxCell id="fJoIZStwYssJqCRf20SM-8" value="Version&lt;div&gt;-v&lt;/div&gt;" style="rounded=1;whiteSpace=wrap;html=1;" vertex="1" parent="1">
          <mxGeometry x="60" y="440" width="170" height="80" as="geometry" />
        </mxCell>
        <mxCell id="fJoIZStwYssJqCRf20SM-11" value="Help&lt;div&gt;--help&lt;/div&gt;" style="rounded=1;whiteSpace=wrap;html=1;" vertex="1" parent="1">
          <mxGeometry x="250" y="440" width="170" height="80" as="geometry" />
        </mxCell>
        <mxCell id="fJoIZStwYssJqCRf20SM-12" value="&lt;font color=&quot;#000000&quot;&gt;&lt;span style=&quot;font-size: 10px;&quot;&gt;1. For each command provides&amp;nbsp;&lt;/span&gt;&lt;/font&gt;&lt;div&gt;&lt;font color=&quot;#000000&quot;&gt;&lt;span style=&quot;font-size: 10px;&quot;&gt;link to web docs&lt;/span&gt;&lt;/font&gt;&lt;div&gt;&lt;font color=&quot;#000000&quot;&gt;&lt;span style=&quot;font-size: 10px;&quot;&gt;2. Provide brief help within the terminal&lt;/span&gt;&lt;/font&gt;&lt;/div&gt;&lt;/div&gt;" style="shape=note;strokeWidth=2;fontSize=14;size=20;whiteSpace=wrap;html=1;fillColor=#fff2cc;strokeColor=#d6b656;fontColor=#666600;align=left;" vertex="1" parent="1">
          <mxGeometry x="250" y="540" width="170" height="90" as="geometry" />
        </mxCell>
        <mxCell id="fJoIZStwYssJqCRf20SM-13" value="&lt;font color=&quot;#000000&quot;&gt;&lt;span style=&quot;font-size: 10px;&quot;&gt;1. Quickly displays CLI version&lt;/span&gt;&lt;/font&gt;" style="shape=note;strokeWidth=2;fontSize=14;size=20;whiteSpace=wrap;html=1;fillColor=#fff2cc;strokeColor=#d6b656;fontColor=#666600;align=left;" vertex="1" parent="1">
          <mxGeometry x="60" y="540" width="170" height="90" as="geometry" />
        </mxCell>
        <mxCell id="fJoIZStwYssJqCRf20SM-14" value="Analyze" style="rounded=1;whiteSpace=wrap;html=1;" vertex="1" parent="1">
          <mxGeometry x="440" y="440" width="170" height="80" as="geometry" />
        </mxCell>
      </root>
    </mxGraphModel>
  </diagram>
</mxfile>
